<?xml version="1.0" encoding="UTF-8" standalone="no"?>
<svg xmlns="http://www.w3.org/2000/svg" xmlns:xlink="http://www.w3.org/1999/xlink" class="card" face="QD" height="3.5in" preserveAspectRatio="none" viewBox="-120 -168 240 336" width="2.5in"><defs><symbol id="SDQ" viewBox="-600 -600 1200 1200" preserveAspectRatio="xMinYMid"><path d="M-400 0C-350 0 0 -450 0 -500C0 -450 350 0 400 0C350 0 0 450 0 500C0 450 -350 0 -400 0Z" fill="blue"></path></symbol><symbol id="VDQ" viewBox="-500 -500 1000 1000" preserveAspectRatio="xMinYMid"><path d="M-260 100C40 100 -40 460 260 460M-175 0L-175 -285A175 175 0 0 1 175 -285L175 285A175 175 0 0 1 -175 285Z" stroke="blue" stroke-width="80" stroke-linecap="square" stroke-miterlimit="1.5" fill="none"></path></symbol></defs><rect width="239" height="335" x="-119.5" y="-167.5" rx="12" ry="12" fill="white" stroke="black"></rect><use xlink:href="#VDQ" height="112" width="112" x="-56" y="-56"></use><use xlink:href="#VDQ" height="70" width="70" x="-122" y="-156"></use><use xlink:href="#SDQ" height="58.558" width="58.558" x="-116.279" y="-81"></use><g transform="rotate(180)"></g></svg>